<svg width="355pt" height="295pt" xmlns="http://www.w3.org/2000/svg" xmlns:xlink="http://www.w3.org/1999/xlink" xmlns:ev="http://www.w3.org/2001/xml-events" style="overflow: hidden; "><g id="viewport-20241028005951610" class="svg-pan-zoom_viewport" transform="matrix(3.148408898901718,0,0,3.148408898901718,-8.999887486304488,59.73937464901772)" style="transform: matrix(3.14841, 0, 0, 3.14841, -8.99989, 59.7394);">
<g id="graph0" class="graph" transform="scale(1 1) rotate(0) translate(4 290.6)">
<title>G</title>
<polygon fill="white" stroke="none" points="-4,4 -4,-290.6 351.1,-290.6 351.1,4 -4,4"></polygon>
<!-- o -->
<g id="node1" class="node">
<title>o</title>
<ellipse fill="none" stroke="black" cx="234.23" cy="-268.6" rx="18" ry="18"></ellipse>
</g>
<!-- LINK -->
<g id="node2" class="node">
<title>LINK</title>
<ellipse fill="none" stroke="black" cx="189.23" cy="-179.8" rx="34.1" ry="18"></ellipse>
<text text-anchor="middle" x="189.23" y="-175.6" font-family="Times,serif" font-size="14.00">LINK</text>
</g>
<!-- o&#45;&gt;LINK -->
<g id="edge5" class="edge">
<title>o-&gt;LINK</title>
<path fill="none" stroke="black" d="M226.19,-252.08C219.8,-239.76 210.72,-222.24 203.15,-207.65"></path>
<polygon fill="black" stroke="black" points="206.38,-206.28 198.67,-199.01 200.17,-209.5 206.38,-206.28"></polygon>
<text text-anchor="middle" x="240.73" y="-220" font-family="Times,serif" font-size="14.00">INSERT</text>
</g>
<!-- ERROR -->
<g id="node3" class="node">
<title>ERROR</title>
<ellipse fill="none" stroke="black" cx="43.23" cy="-91" rx="43.23" ry="18"></ellipse>
<text text-anchor="middle" x="43.23" y="-86.8" font-family="Times,serif" font-size="14.00">ERROR</text>
</g>
<!-- LINK&#45;&gt;ERROR -->
<g id="edge1" class="edge">
<title>LINK-&gt;ERROR</title>
<path fill="none" stroke="black" d="M167.06,-165.62C143.04,-151.34 104.46,-128.4 76.75,-111.92"></path>
<polygon fill="black" stroke="black" points="78.76,-109.05 68.37,-106.95 75.18,-115.07 78.76,-109.05"></polygon>
</g>
<!-- LINKED -->
<g id="node4" class="node">
<title>LINKED</title>
<ellipse fill="none" stroke="black" cx="151.23" cy="-91" rx="46.97" ry="18"></ellipse>
<text text-anchor="middle" x="151.23" y="-86.8" font-family="Times,serif" font-size="14.00">LINKED</text>
</g>
<!-- LINK&#45;&gt;LINKED -->
<g id="edge2" class="edge">
<title>LINK-&gt;LINKED</title>
<path fill="none" stroke="black" d="M181.91,-162.06C176.63,-150.01 169.39,-133.49 163.28,-119.51"></path>
<polygon fill="black" stroke="black" points="166.49,-118.12 159.27,-110.37 160.08,-120.93 166.49,-118.12"></polygon>
</g>
<!-- UNLINK -->
<g id="node5" class="node">
<title>UNLINK</title>
<ellipse fill="none" stroke="black" cx="234.23" cy="-18" rx="48.05" ry="18"></ellipse>
<text text-anchor="middle" x="234.23" y="-13.8" font-family="Times,serif" font-size="14.00">UNLINK</text>
</g>
<!-- LINKED&#45;&gt;UNLINK -->
<g id="edge3" class="edge">
<title>LINKED-&gt;UNLINK</title>
<path fill="none" stroke="black" d="M169.65,-74.24C180.64,-64.84 194.8,-52.73 207.06,-42.24"></path>
<polygon fill="black" stroke="black" points="209.1,-45.1 214.43,-35.94 204.55,-39.78 209.1,-45.1"></polygon>
</g>
<!-- UNLINK&#45;&gt;o -->
<g id="edge6" class="edge">
<title>UNLINK-&gt;o</title>
<path fill="none" stroke="black" d="M252.34,-35.06C262.04,-44.92 273.04,-58.42 278.23,-73 302.05,-139.93 298.79,-167.99 269.23,-232.6 266.35,-238.91 261.8,-244.72 256.93,-249.72"></path>
<polygon fill="black" stroke="black" points="254.77,-246.94 249.77,-256.28 259.51,-252.1 254.77,-246.94"></polygon>
<text text-anchor="middle" x="320.67" y="-131.2" font-family="Times,serif" font-size="14.00">DELETE</text>
</g>
<!-- UNLINK&#45;&gt;LINK -->
<g id="edge4" class="edge">
<title>UNLINK-&gt;LINK</title>
<path fill="none" stroke="black" d="M229.45,-35.98C221.73,-63.41 206.42,-117.75 197.08,-150.93"></path>
<polygon fill="black" stroke="black" points="193.8,-149.67 194.46,-160.24 200.54,-151.56 193.8,-149.67"></polygon>
<text text-anchor="middle" x="246.84" y="-86.8" font-family="Times,serif" font-size="14.00">UPDATE</text>
</g>
</g>
</g></svg>