<?xml version="1.0" encoding="UTF-8" standalone="no"?><!DOCTYPE svg PUBLIC "-//W3C//DTD SVG 1.1//EN" "http://www.w3.org/Graphics/SVG/1.1/DTD/svg11.dtd"><!-- Generated by graphviz version 2.40.1 (20161225.0304)
 --><!-- Title: G Pages: 1 --><svg xmlns="http://www.w3.org/2000/svg" xmlns:xlink="http://www.w3.org/1999/xlink" width="1307pt" height="476pt" viewBox="0.00 0.00 1306.65 476.00">
<g id="graph0" class="graph" transform="scale(1 1) rotate(0) translate(4 472)">
<title>G</title>
<polygon fill="#ffffff" stroke="transparent" points="-4,4 -4,-472 1302.647,-472 1302.647,4 -4,4"/>
<!-- dl_newtoken -->
<g id="node1" class="node">
<title>dl_newtoken</title>
<ellipse fill="none" stroke="#000000" cx="636.2319" cy="-450" rx="60.839" ry="18"/>
<text text-anchor="middle" x="636.2319" y="-445.8" font-family="Times,serif" font-size="14.00" fill="#000000">dl_newtoken</text>
</g>
<!-- uuid_generate_v4 -->
<g id="node2" class="node">
<title>uuid_generate_v4</title>
<ellipse fill="none" stroke="#000000" cx="636.2319" cy="-378" rx="80.4441" ry="18"/>
<text text-anchor="middle" x="636.2319" y="-373.8" font-family="Times,serif" font-size="14.00" fill="#000000">uuid_generate_v4</text>
</g>
<!-- dl_newtoken&#45;&gt;uuid_generate_v4 -->
<g id="edge1" class="edge">
<title>dl_newtoken-&gt;uuid_generate_v4</title>
<path fill="none" stroke="#000000" d="M636.2319,-431.8314C636.2319,-424.131 636.2319,-414.9743 636.2319,-406.4166"/>
<polygon fill="#000000" stroke="#000000" points="639.732,-406.4132 636.2319,-396.4133 632.732,-406.4133 639.732,-406.4132"/>
</g>
<!-- dl_ref -->
<g id="node3" class="node">
<title>dl_ref</title>
<ellipse fill="none" stroke="#000000" cx="308.2319" cy="-234" rx="34.1871" ry="18"/>
<text text-anchor="middle" x="308.2319" y="-229.8" font-family="Times,serif" font-size="14.00" fill="#000000">dl_ref</text>
</g>
<!-- curl_get -->
<g id="node4" class="node">
<title>curl_get</title>
<ellipse fill="none" stroke="#000000" cx="308.2319" cy="-162" rx="42.8557" ry="18"/>
<text text-anchor="middle" x="308.2319" y="-157.8" font-family="Times,serif" font-size="14.00" fill="#000000">curl_get</text>
</g>
<!-- dl_ref&#45;&gt;curl_get -->
<g id="edge2" class="edge">
<title>dl_ref-&gt;curl_get</title>
<path fill="none" stroke="#000000" d="M308.2319,-215.8314C308.2319,-208.131 308.2319,-198.9743 308.2319,-190.4166"/>
<polygon fill="#000000" stroke="#000000" points="311.732,-190.4132 308.2319,-180.4133 304.732,-190.4133 311.732,-190.4132"/>
</g>
<!-- dlurlcomplete -->
<g id="node5" class="node">
<title>dlurlcomplete</title>
<ellipse fill="none" stroke="#000000" cx="629.2319" cy="-162" rx="64.8447" ry="18"/>
<text text-anchor="middle" x="629.2319" y="-157.8" font-family="Times,serif" font-size="14.00" fill="#000000">dlurlcomplete</text>
</g>
<!-- dl_ref&#45;&gt;dlurlcomplete -->
<g id="edge3" class="edge">
<title>dl_ref-&gt;dlurlcomplete</title>
<path fill="none" stroke="#000000" d="M339.8891,-226.8993C392.9219,-215.0041 500.5787,-190.8568 568.5748,-175.6053"/>
<polygon fill="#000000" stroke="#000000" points="569.7286,-178.9336 578.7201,-173.3297 568.1965,-172.1033 569.7286,-178.9336"/>
</g>
<!-- dlurlpath -->
<g id="node6" class="node">
<title>dlurlpath</title>
<ellipse fill="none" stroke="#000000" cx="896.2319" cy="-90" rx="45.806" ry="18"/>
<text text-anchor="middle" x="896.2319" y="-85.8" font-family="Times,serif" font-size="14.00" fill="#000000">dlurlpath</text>
</g>
<!-- dl_ref&#45;&gt;dlurlpath -->
<g id="edge4" class="edge">
<title>dl_ref-&gt;dlurlpath</title>
<path fill="none" stroke="#000000" d="M334.7414,-222.417C379.3977,-203.3452 472.8282,-165.3255 555.2319,-144 654.5812,-118.2891 773.5661,-102.8154 841.485,-95.3858"/>
<polygon fill="#000000" stroke="#000000" points="841.9633,-98.8547 851.5315,-94.305 841.2144,-91.8948 841.9633,-98.8547"/>
</g>
<!-- dlurlpathonly -->
<g id="node7" class="node">
<title>dlurlpathonly</title>
<ellipse fill="none" stroke="#000000" cx="813.2319" cy="-162" rx="63.1441" ry="18"/>
<text text-anchor="middle" x="813.2319" y="-157.8" font-family="Times,serif" font-size="14.00" fill="#000000">dlurlpathonly</text>
</g>
<!-- dl_ref&#45;&gt;dlurlpathonly -->
<g id="edge5" class="edge">
<title>dl_ref-&gt;dlurlpathonly</title>
<path fill="none" stroke="#000000" d="M339.2388,-226.3119C354.2628,-222.7915 372.6103,-218.7918 389.2319,-216 527.7612,-192.7322 564.101,-199.3477 703.2319,-180 718.1042,-177.9319 734.0665,-175.4638 749.0919,-173.0282"/>
<polygon fill="#000000" stroke="#000000" points="750.0169,-176.4234 759.3194,-171.3525 748.8851,-169.5155 750.0169,-176.4234"/>
</g>
<!-- dlurlscheme -->
<g id="node8" class="node">
<title>dlurlscheme</title>
<ellipse fill="none" stroke="#000000" cx="58.2319" cy="-90" rx="58.4648" ry="18"/>
<text text-anchor="middle" x="58.2319" y="-85.8" font-family="Times,serif" font-size="14.00" fill="#000000">dlurlscheme</text>
</g>
<!-- dl_ref&#45;&gt;dlurlscheme -->
<g id="edge6" class="edge">
<title>dl_ref-&gt;dlurlscheme</title>
<path fill="none" stroke="#000000" d="M276.3741,-227.3792C243.3349,-219.5523 191.0372,-204.4125 151.2319,-180 122.951,-162.6554 96.3549,-135.3779 78.9085,-115.3959"/>
<polygon fill="#000000" stroke="#000000" points="81.3978,-112.9215 72.238,-107.5972 76.0783,-117.4716 81.3978,-112.9215"/>
</g>
<!-- file_link -->
<g id="node9" class="node">
<title>file_link</title>
<ellipse fill="none" stroke="#000000" cx="204.2319" cy="-162" rx="43.5175" ry="18"/>
<text text-anchor="middle" x="204.2319" y="-157.8" font-family="Times,serif" font-size="14.00" fill="#000000">file_link</text>
</g>
<!-- dl_ref&#45;&gt;file_link -->
<g id="edge7" class="edge">
<title>dl_ref-&gt;file_link</title>
<path fill="none" stroke="#000000" d="M287.186,-219.4297C272.2251,-209.0722 251.8896,-194.9937 235.0973,-183.3684"/>
<polygon fill="#000000" stroke="#000000" points="236.9005,-180.3598 226.6863,-177.5454 232.916,-186.1152 236.9005,-180.3598"/>
</g>
<!-- link_control_options -->
<g id="node10" class="node">
<title>link_control_options</title>
<ellipse fill="none" stroke="#000000" cx="486.2319" cy="-90" rx="91.5176" ry="18"/>
<text text-anchor="middle" x="486.2319" y="-85.8" font-family="Times,serif" font-size="14.00" fill="#000000">link_control_options</text>
</g>
<!-- dl_ref&#45;&gt;link_control_options -->
<g id="edge8" class="edge">
<title>dl_ref-&gt;link_control_options</title>
<path fill="none" stroke="#000000" d="M323.5655,-217.7837C341.7116,-199.0052 373.2578,-167.6297 403.2319,-144 417.3187,-132.8949 433.7111,-121.8713 448.1894,-112.7078"/>
<polygon fill="#000000" stroke="#000000" points="450.2895,-115.5229 456.919,-107.2585 446.5827,-109.5848 450.2895,-115.5229"/>
</g>
<!-- uri_get -->
<g id="node22" class="node">
<title>uri_get</title>
<ellipse fill="none" stroke="#000000" cx="862.2319" cy="-18" rx="38.2818" ry="18"/>
<text text-anchor="middle" x="862.2319" y="-13.8" font-family="Times,serif" font-size="14.00" fill="#000000">uri_get</text>
</g>
<!-- dlurlpath&#45;&gt;uri_get -->
<g id="edge27" class="edge">
<title>dlurlpath-&gt;uri_get</title>
<path fill="none" stroke="#000000" d="M887.8274,-72.2022C883.916,-63.9192 879.1807,-53.8915 874.852,-44.7248"/>
<polygon fill="#000000" stroke="#000000" points="877.9747,-43.141 870.5397,-35.593 871.645,-46.1301 877.9747,-43.141"/>
</g>
<!-- dlurlpathonly&#45;&gt;dlurlpath -->
<g id="edge28" class="edge">
<title>dlurlpathonly-&gt;dlurlpath</title>
<path fill="none" stroke="#000000" d="M833.3239,-144.5708C844.1607,-135.1703 857.6793,-123.4433 869.4044,-113.2721"/>
<polygon fill="#000000" stroke="#000000" points="871.9199,-115.7234 877.1803,-106.5267 867.3329,-110.4357 871.9199,-115.7234"/>
</g>
<!-- dlurlpathonly&#45;&gt;uri_get -->
<g id="edge29" class="edge">
<title>dlurlpathonly-&gt;uri_get</title>
<path fill="none" stroke="#000000" d="M818.4468,-143.9504C823.8153,-125.693 832.5931,-96.7157 841.2319,-72 844.2854,-63.264 847.8564,-53.8329 851.1785,-45.3345"/>
<polygon fill="#000000" stroke="#000000" points="854.493,-46.4705 854.9182,-35.8842 847.9841,-43.8948 854.493,-46.4705"/>
</g>
<!-- dlurlscheme&#45;&gt;uri_get -->
<g id="edge32" class="edge">
<title>dlurlscheme-&gt;uri_get</title>
<path fill="none" stroke="#000000" d="M100.1372,-77.4399C108.3938,-75.3354 117.038,-73.388 125.2319,-72 258.5085,-49.424 671.7459,-27.4257 813.7391,-20.3511"/>
<polygon fill="#000000" stroke="#000000" points="814.0667,-23.8392 823.881,-19.8482 813.72,-16.8478 814.0667,-23.8392"/>
</g>
<!-- file_link&#45;&gt;link_control_options -->
<g id="edge36" class="edge">
<title>file_link-&gt;link_control_options</title>
<path fill="none" stroke="#000000" d="M237.0787,-150.0594C243.3983,-147.9245 249.9921,-145.8073 256.2319,-144 308.0591,-128.9888 367.3558,-115.1458 412.7597,-105.2344"/>
<polygon fill="#000000" stroke="#000000" points="413.7826,-108.594 422.8137,-103.0542 412.2991,-101.7529 413.7826,-108.594"/>
</g>
<!-- file_stat -->
<g id="node25" class="node">
<title>file_stat</title>
<ellipse fill="none" stroke="#000000" cx="334.2319" cy="-90" rx="42.2874" ry="18"/>
<text text-anchor="middle" x="334.2319" y="-85.8" font-family="Times,serif" font-size="14.00" fill="#000000">file_stat</text>
</g>
<!-- file_link&#45;&gt;file_stat -->
<g id="edge34" class="edge">
<title>file_link-&gt;file_stat</title>
<path fill="none" stroke="#000000" d="M230.5394,-147.4297C250.4043,-136.4276 277.85,-121.2269 299.5151,-109.2278"/>
<polygon fill="#000000" stroke="#000000" points="301.3551,-112.2097 308.4073,-104.3029 297.9636,-106.0862 301.3551,-112.2097"/>
</g>
<!-- is_valid_prefix -->
<g id="node26" class="node">
<title>is_valid_prefix</title>
<ellipse fill="none" stroke="#000000" cx="204.2319" cy="-90" rx="69.5012" ry="18"/>
<text text-anchor="middle" x="204.2319" y="-85.8" font-family="Times,serif" font-size="14.00" fill="#000000">is_valid_prefix</text>
</g>
<!-- file_link&#45;&gt;is_valid_prefix -->
<g id="edge35" class="edge">
<title>file_link-&gt;is_valid_prefix</title>
<path fill="none" stroke="#000000" d="M204.2319,-143.8314C204.2319,-136.131 204.2319,-126.9743 204.2319,-118.4166"/>
<polygon fill="#000000" stroke="#000000" points="207.732,-118.4132 204.2319,-108.4133 200.732,-118.4133 207.732,-118.4132"/>
</g>
<!-- dl_trigger_advice -->
<g id="node11" class="node">
<title>dl_trigger_advice</title>
<ellipse fill="none" stroke="#000000" cx="813.2319" cy="-378" rx="79.2942" ry="18"/>
<text text-anchor="middle" x="813.2319" y="-373.8" font-family="Times,serif" font-size="14.00" fill="#000000">dl_trigger_advice</text>
</g>
<!-- dl_class_adminable -->
<g id="node12" class="node">
<title>dl_class_adminable</title>
<ellipse fill="none" stroke="#000000" cx="635.2319" cy="-306" rx="87.3983" ry="18"/>
<text text-anchor="middle" x="635.2319" y="-301.8" font-family="Times,serif" font-size="14.00" fill="#000000">dl_class_adminable</text>
</g>
<!-- dl_trigger_advice&#45;&gt;dl_class_adminable -->
<g id="edge9" class="edge">
<title>dl_trigger_advice-&gt;dl_class_adminable</title>
<path fill="none" stroke="#000000" d="M774.1691,-362.1993C747.781,-351.5255 712.7333,-337.3489 684.441,-325.9048"/>
<polygon fill="#000000" stroke="#000000" points="685.7103,-322.6428 675.1275,-322.1375 683.0854,-329.132 685.7103,-322.6428"/>
</g>
<!-- dl_trigger_table -->
<g id="node13" class="node">
<title>dl_trigger_table</title>
<ellipse fill="none" stroke="#000000" cx="813.2319" cy="-306" rx="72.9315" ry="18"/>
<text text-anchor="middle" x="813.2319" y="-301.8" font-family="Times,serif" font-size="14.00" fill="#000000">dl_trigger_table</text>
</g>
<!-- dl_trigger_advice&#45;&gt;dl_trigger_table -->
<g id="edge10" class="edge">
<title>dl_trigger_advice-&gt;dl_trigger_table</title>
<path fill="none" stroke="#000000" d="M813.2319,-359.8314C813.2319,-352.131 813.2319,-342.9743 813.2319,-334.4166"/>
<polygon fill="#000000" stroke="#000000" points="816.732,-334.4132 813.2319,-324.4133 809.732,-334.4133 816.732,-334.4132"/>
</g>
<!-- dl_trigger_table&#45;&gt;dl_ref -->
<g id="edge15" class="edge">
<title>dl_trigger_table-&gt;dl_ref</title>
<path fill="none" stroke="#000000" d="M760.4763,-293.4405C750.7881,-291.4134 740.7348,-289.4936 731.2319,-288 565.8295,-262.0035 519.3605,-289.7206 356.2319,-252 352.3434,-251.1009 348.3444,-249.9644 344.3928,-248.7013"/>
<polygon fill="#000000" stroke="#000000" points="345.3528,-245.3299 334.758,-245.364 343.0616,-251.9443 345.3528,-245.3299"/>
</g>
<!-- dl_trigger_table&#45;&gt;dlurlcomplete -->
<g id="edge17" class="edge">
<title>dl_trigger_table-&gt;dlurlcomplete</title>
<path fill="none" stroke="#000000" d="M806.1706,-287.7916C797.5755,-267.7635 781.2971,-235.7989 758.2319,-216 737.8304,-198.4875 710.9398,-186.0213 686.9921,-177.5126"/>
<polygon fill="#000000" stroke="#000000" points="687.8803,-174.118 677.2859,-174.2182 685.6304,-180.7466 687.8803,-174.118"/>
</g>
<!-- dl_trigger_table&#45;&gt;link_control_options -->
<g id="edge19" class="edge">
<title>dl_trigger_table-&gt;link_control_options</title>
<path fill="none" stroke="#000000" d="M760.4648,-293.5125C750.7778,-291.4781 740.7279,-289.5371 731.2319,-288 655.794,-275.7886 440.3624,-308.7951 389.2319,-252 378.5268,-240.1088 384.0769,-231.1468 389.2319,-216 402.9561,-175.6746 435.3755,-138.1856 458.9676,-114.7637"/>
<polygon fill="#000000" stroke="#000000" points="461.5418,-117.1429 466.2823,-107.6678 456.6677,-112.1186 461.5418,-117.1429"/>
</g>
<!-- file_unlink -->
<g id="node15" class="node">
<title>file_unlink</title>
<ellipse fill="none" stroke="#000000" cx="1245.2319" cy="-162" rx="53.3302" ry="18"/>
<text text-anchor="middle" x="1245.2319" y="-157.8" font-family="Times,serif" font-size="14.00" fill="#000000">file_unlink</text>
</g>
<!-- dl_trigger_table&#45;&gt;file_unlink -->
<g id="edge18" class="edge">
<title>dl_trigger_table-&gt;file_unlink</title>
<path fill="none" stroke="#000000" d="M883.919,-301.5677C997.1322,-293.7891 1208.9376,-276.1809 1233.2319,-252 1249.1421,-236.1641 1251.0647,-210.0967 1249.6384,-190.0812"/>
<polygon fill="#000000" stroke="#000000" points="1253.1038,-189.5633 1248.6066,-179.9703 1246.14,-190.274 1253.1038,-189.5633"/>
</g>
<!-- dl_unref -->
<g id="node19" class="node">
<title>dl_unref</title>
<ellipse fill="none" stroke="#000000" cx="849.2319" cy="-234" rx="43.5022" ry="18"/>
<text text-anchor="middle" x="849.2319" y="-229.8" font-family="Times,serif" font-size="14.00" fill="#000000">dl_unref</text>
</g>
<!-- dl_trigger_table&#45;&gt;dl_unref -->
<g id="edge16" class="edge">
<title>dl_trigger_table-&gt;dl_unref</title>
<path fill="none" stroke="#000000" d="M822.3162,-287.8314C826.3975,-279.6688 831.2969,-269.87 835.7906,-260.8827"/>
<polygon fill="#000000" stroke="#000000" points="838.9335,-262.423 840.2752,-251.9134 832.6725,-259.2924 838.9335,-262.423"/>
</g>
<!-- dl_trigger_event -->
<g id="node14" class="node">
<title>dl_trigger_event</title>
<ellipse fill="none" stroke="#000000" cx="1069.2319" cy="-450" rx="74.7207" ry="18"/>
<text text-anchor="middle" x="1069.2319" y="-445.8" font-family="Times,serif" font-size="14.00" fill="#000000">dl_trigger_event</text>
</g>
<!-- dl_trigger_event&#45;&gt;dl_trigger_advice -->
<g id="edge11" class="edge">
<title>dl_trigger_event-&gt;dl_trigger_advice</title>
<path fill="none" stroke="#000000" d="M1020.4777,-436.2879C978.5331,-424.491 917.871,-407.4298 873.0077,-394.8119"/>
<polygon fill="#000000" stroke="#000000" points="873.6887,-391.3677 863.1146,-392.0295 871.7935,-398.1063 873.6887,-391.3677"/>
</g>
<!-- dl_trigger_event&#45;&gt;file_unlink -->
<g id="edge12" class="edge">
<title>dl_trigger_event-&gt;file_unlink</title>
<path fill="none" stroke="#000000" d="M1094.5867,-432.926C1137.2184,-402.4909 1221.7768,-334.2742 1254.2319,-252 1262.0718,-232.1259 1259.0364,-207.9557 1254.4709,-189.6693"/>
<polygon fill="#000000" stroke="#000000" points="1257.8106,-188.6153 1251.7569,-179.9203 1251.0671,-190.4927 1257.8106,-188.6153"/>
</g>
<!-- dl_lco -->
<g id="node17" class="node">
<title>dl_lco</title>
<ellipse fill="none" stroke="#000000" cx="1116.2319" cy="-90" rx="35.3528" ry="18"/>
<text text-anchor="middle" x="1116.2319" y="-85.8" font-family="Times,serif" font-size="14.00" fill="#000000">dl_lco</text>
</g>
<!-- file_unlink&#45;&gt;dl_lco -->
<g id="edge37" class="edge">
<title>file_unlink-&gt;dl_lco</title>
<path fill="none" stroke="#000000" d="M1217.5582,-146.5542C1197.5666,-135.3961 1170.4768,-120.2762 1149.3374,-108.4775"/>
<polygon fill="#000000" stroke="#000000" points="1150.8236,-105.2988 1140.3859,-103.4813 1147.412,-111.4112 1150.8236,-105.2988"/>
</g>
<!-- dl_trigger_options -->
<g id="node16" class="node">
<title>dl_trigger_options</title>
<ellipse fill="none" stroke="#000000" cx="1142.2319" cy="-234" rx="82.2661" ry="18"/>
<text text-anchor="middle" x="1142.2319" y="-229.8" font-family="Times,serif" font-size="14.00" fill="#000000">dl_trigger_options</text>
</g>
<!-- dl_trigger_options&#45;&gt;dl_lco -->
<g id="edge13" class="edge">
<title>dl_trigger_options-&gt;dl_lco</title>
<path fill="none" stroke="#000000" d="M1140.8237,-215.9448C1139.2127,-197.6831 1136.1438,-168.7024 1131.2319,-144 1129.5051,-135.3157 1127.1106,-125.9821 1124.7413,-117.5581"/>
<polygon fill="#000000" stroke="#000000" points="1128.0672,-116.4608 1121.9102,-107.8386 1121.3465,-118.4184 1128.0672,-116.4608"/>
</g>
<!-- modlco -->
<g id="node18" class="node">
<title>modlco</title>
<ellipse fill="none" stroke="#000000" cx="1082.2319" cy="-162" rx="40.0089" ry="18"/>
<text text-anchor="middle" x="1082.2319" y="-157.8" font-family="Times,serif" font-size="14.00" fill="#000000">modlco</text>
</g>
<!-- dl_trigger_options&#45;&gt;modlco -->
<g id="edge14" class="edge">
<title>dl_trigger_options-&gt;modlco</title>
<path fill="none" stroke="#000000" d="M1127.4005,-216.2022C1120.0262,-207.3531 1110.9925,-196.5127 1102.9471,-186.8583"/>
<polygon fill="#000000" stroke="#000000" points="1105.5703,-184.5388 1096.4796,-179.0972 1100.1927,-189.0201 1105.5703,-184.5388"/>
</g>
<!-- modlco&#45;&gt;link_control_options -->
<g id="edge40" class="edge">
<title>modlco-&gt;link_control_options</title>
<path fill="none" stroke="#000000" d="M1052.537,-149.729C1046.251,-147.5186 1039.5923,-145.4572 1033.2319,-144 950.1692,-124.9695 716.7734,-106.2098 583.2301,-96.6054"/>
<polygon fill="#000000" stroke="#000000" points="583.2249,-93.0961 573.0006,-95.8735 582.7253,-100.0783 583.2249,-93.0961"/>
</g>
<!-- modlco&#45;&gt;dl_lco -->
<g id="edge39" class="edge">
<title>modlco-&gt;dl_lco</title>
<path fill="none" stroke="#000000" d="M1090.6364,-144.2022C1094.5479,-135.9192 1099.2832,-125.8915 1103.6119,-116.7248"/>
<polygon fill="#000000" stroke="#000000" points="1106.8189,-118.1301 1107.9241,-107.593 1100.4891,-115.141 1106.8189,-118.1301"/>
</g>
<!-- dl_unref&#45;&gt;dlurlcomplete -->
<g id="edge20" class="edge">
<title>dl_unref-&gt;dlurlcomplete</title>
<path fill="none" stroke="#000000" d="M814.8569,-222.75C778.9434,-210.9965 722.1848,-192.4209 680.8778,-178.9023"/>
<polygon fill="#000000" stroke="#000000" points="681.8525,-175.5387 671.2599,-175.7546 679.6752,-182.1915 681.8525,-175.5387"/>
</g>
<!-- dl_unref&#45;&gt;dlurlpath -->
<g id="edge21" class="edge">
<title>dl_unref-&gt;dlurlpath</title>
<path fill="none" stroke="#000000" d="M863.8381,-216.6661C871.5017,-206.602 880.2998,-193.3126 885.2319,-180 892.5577,-160.2269 895.2287,-136.5041 896.1104,-118.3793"/>
<polygon fill="#000000" stroke="#000000" points="899.6157,-118.2758 896.4492,-108.1652 892.6195,-118.0436 899.6157,-118.2758"/>
</g>
<!-- dl_unref&#45;&gt;dlurlpathonly -->
<g id="edge22" class="edge">
<title>dl_unref-&gt;dlurlpathonly</title>
<path fill="none" stroke="#000000" d="M840.333,-216.2022C836.2224,-207.981 831.2524,-198.041 826.697,-188.9301"/>
<polygon fill="#000000" stroke="#000000" points="829.7559,-187.2216 822.1532,-179.8425 823.4949,-190.3521 829.7559,-187.2216"/>
</g>
<!-- dl_unref&#45;&gt;link_control_options -->
<g id="edge24" class="edge">
<title>dl_unref-&gt;link_control_options</title>
<path fill="none" stroke="#000000" d="M817.6102,-221.1568C795.3165,-211.4085 765.2702,-196.8371 741.2319,-180 722.1768,-166.6533 723.6357,-155.1768 703.2319,-144 663.6769,-122.3326 615.3349,-109.2101 574.3264,-101.3392"/>
<polygon fill="#000000" stroke="#000000" points="574.8103,-97.8695 564.3413,-99.4976 573.5406,-104.7534 574.8103,-97.8695"/>
</g>
<!-- dl_unref&#45;&gt;file_unlink -->
<g id="edge23" class="edge">
<title>dl_unref-&gt;file_unlink</title>
<path fill="none" stroke="#000000" d="M881.6967,-221.7698C888.1099,-219.6365 894.8358,-217.5941 901.2319,-216 1001.6277,-190.9784 1029.0204,-196.0685 1131.2319,-180 1149.1847,-177.1777 1168.7261,-174.0958 1186.477,-171.2925"/>
<polygon fill="#000000" stroke="#000000" points="1187.3646,-174.6958 1196.696,-169.6783 1186.2723,-167.7815 1187.3646,-174.6958"/>
</g>
<!-- dlurlcompleteonly -->
<g id="node20" class="node">
<title>dlurlcompleteonly</title>
<ellipse fill="none" stroke="#000000" cx="480.2319" cy="-234" rx="81.6828" ry="18"/>
<text text-anchor="middle" x="480.2319" y="-229.8" font-family="Times,serif" font-size="14.00" fill="#000000">dlurlcompleteonly</text>
</g>
<!-- dlurlcompleteonly&#45;&gt;dlurlcomplete -->
<g id="edge25" class="edge">
<title>dlurlcompleteonly-&gt;dlurlcomplete</title>
<path fill="none" stroke="#000000" d="M514.4155,-217.4817C536.1635,-206.9727 564.4707,-193.294 587.5361,-182.1483"/>
<polygon fill="#000000" stroke="#000000" points="589.2593,-185.2029 596.7404,-177.7006 586.2136,-178.9002 589.2593,-185.2029"/>
</g>
<!-- dlurlcompletewrite -->
<g id="node21" class="node">
<title>dlurlcompletewrite</title>
<ellipse fill="none" stroke="#000000" cx="664.2319" cy="-234" rx="84.5247" ry="18"/>
<text text-anchor="middle" x="664.2319" y="-229.8" font-family="Times,serif" font-size="14.00" fill="#000000">dlurlcompletewrite</text>
</g>
<!-- dlurlcompletewrite&#45;&gt;dlurlcomplete -->
<g id="edge26" class="edge">
<title>dlurlcompletewrite-&gt;dlurlcomplete</title>
<path fill="none" stroke="#000000" d="M655.3999,-215.8314C651.4738,-207.7547 646.7689,-198.0761 642.438,-189.1668"/>
<polygon fill="#000000" stroke="#000000" points="645.4596,-187.3769 637.9398,-179.9134 639.164,-190.4373 645.4596,-187.3769"/>
</g>
<!-- dlurlpathwrite -->
<g id="node23" class="node">
<title>dlurlpathwrite</title>
<ellipse fill="none" stroke="#000000" cx="976.2319" cy="-234" rx="65.9871" ry="18"/>
<text text-anchor="middle" x="976.2319" y="-229.8" font-family="Times,serif" font-size="14.00" fill="#000000">dlurlpathwrite</text>
</g>
<!-- dlurlpathwrite&#45;&gt;dlurlpath -->
<g id="edge30" class="edge">
<title>dlurlpathwrite-&gt;dlurlpath</title>
<path fill="none" stroke="#000000" d="M966.2616,-216.0535C952.353,-191.0179 927.029,-145.4347 910.947,-116.4872"/>
<polygon fill="#000000" stroke="#000000" points="913.9926,-114.7622 906.0766,-107.7204 907.8735,-118.1617 913.9926,-114.7622"/>
</g>
<!-- dlurlpathwrite&#45;&gt;dlurlpathonly -->
<g id="edge31" class="edge">
<title>dlurlpathwrite-&gt;dlurlpathonly</title>
<path fill="none" stroke="#000000" d="M941.2643,-218.5542C916.6037,-207.6611 883.395,-192.9923 856.9788,-181.3238"/>
<polygon fill="#000000" stroke="#000000" points="858.1438,-178.0122 847.5822,-177.1731 855.3154,-184.4153 858.1438,-178.0122"/>
</g>
<!-- dlurlserver -->
<g id="node24" class="node">
<title>dlurlserver</title>
<ellipse fill="none" stroke="#000000" cx="1222.2319" cy="-90" rx="52.7257" ry="18"/>
<text text-anchor="middle" x="1222.2319" y="-85.8" font-family="Times,serif" font-size="14.00" fill="#000000">dlurlserver</text>
</g>
<!-- dlurlserver&#45;&gt;uri_get -->
<g id="edge33" class="edge">
<title>dlurlserver-&gt;uri_get</title>
<path fill="none" stroke="#000000" d="M1182.703,-77.8638C1175.2728,-75.7707 1167.5422,-73.7187 1160.2319,-72 1072.3548,-51.3399 968.311,-34.1029 909.3125,-24.9904"/>
<polygon fill="#000000" stroke="#000000" points="909.6007,-21.4937 899.1858,-23.4379 908.5399,-28.4129 909.6007,-21.4937"/>
</g>
<!-- list -->
<g id="node27" class="node">
<title>list</title>
<ellipse fill="none" stroke="#000000" cx="997.2319" cy="-162" rx="27" ry="18"/>
<text text-anchor="middle" x="997.2319" y="-157.8" font-family="Times,serif" font-size="14.00" fill="#000000">list</text>
</g>
<!-- list&#45;&gt;dlurlpath -->
<g id="edge38" class="edge">
<title>list-&gt;dlurlpath</title>
<path fill="none" stroke="#000000" d="M978.707,-148.7941C964.2553,-138.4919 943.8688,-123.9589 926.9805,-111.9198"/>
<polygon fill="#000000" stroke="#000000" points="928.6924,-108.8419 918.5179,-105.8871 924.629,-114.5418 928.6924,-108.8419"/>
</g>
</g>
</svg>